<svg width="164" height="164" viewBox="0 0 164 164" fill="none" xmlns="http://www.w3.org/2000/svg">
<line x1="58.5813" y1="160.302" x2="101.721" y2="160.302" stroke="white" stroke-width="7.39535" stroke-linecap="round"/>
<line x1="80.7673" y1="155.379" x2="80.7673" y2="149.244" stroke="white" stroke-width="9.86046" stroke-linecap="round"/>
<mask id="path-3-outside-1_279_2" maskUnits="userSpaceOnUse" x="24.9999" y="93.5599" width="111" height="56" fill="black">
<rect fill="white" x="24.9999" y="93.5599" width="111" height="56"/>
<path fill-rule="evenodd" clip-rule="evenodd" d="M28.9999 97.5599C29.6693 124.816 52.5228 145.544 79.8853 145.544C106.629 145.544 129.634 124.031 131.302 97.5599H130.067C128.4 123.338 105.963 144.312 79.8853 144.312C53.149 144.312 30.902 124.082 30.2329 97.5599H28.9999Z"/>
</mask>
<path fill-rule="evenodd" clip-rule="evenodd" d="M28.9999 97.5599C29.6693 124.816 52.5228 145.544 79.8853 145.544C106.629 145.544 129.634 124.031 131.302 97.5599H130.067C128.4 123.338 105.963 144.312 79.8853 144.312C53.149 144.312 30.902 124.082 30.2329 97.5599H28.9999Z" fill="white"/>
<path d="M28.9999 97.5599V93.8623H25.2103L25.3034 97.6507L28.9999 97.5599ZM131.302 97.5599L134.993 97.7924L135.24 93.8623H131.302V97.5599ZM130.067 97.5599V93.8623H126.601L126.377 97.3212L130.067 97.5599ZM30.2329 97.5599L33.9294 97.4667L33.8385 93.8623H30.2329V97.5599ZM25.3034 97.6507C26.0258 127.069 50.6762 149.242 79.8853 149.242V141.847C54.3694 141.847 33.3127 122.562 32.6965 97.4692L25.3034 97.6507ZM79.8853 149.242C108.563 149.242 133.201 126.23 134.993 97.7924L127.612 97.3274C126.068 121.832 104.696 141.847 79.8853 141.847V149.242ZM131.302 93.8623H130.067V101.258H131.302V93.8623ZM79.8853 148.009C107.895 148.009 131.963 125.539 133.757 97.7986L126.377 97.3212C124.837 121.136 104.031 140.614 79.8853 140.614V148.009ZM26.5364 97.6532C27.26 126.336 51.3018 148.009 79.8853 148.009V140.614C54.9961 140.614 34.544 121.829 33.9294 97.4667L26.5364 97.6532ZM30.2329 93.8623H28.9999V101.258H30.2329V93.8623Z" fill="white" mask="url(#path-3-outside-1_279_2)"/>
<line x1="130.686" y1="95.7066" x2="130.686" y2="89.57" stroke="white" stroke-width="8.62791" stroke-linecap="round"/>
<line x1="29.6163" y1="95.7066" x2="29.6163" y2="89.57" stroke="white" stroke-width="8.62791" stroke-linecap="round"/>
<mask id="path-7-inside-2_279_2" fill="white">
<path fill-rule="evenodd" clip-rule="evenodd" d="M112.199 37.0816C111.785 21.8306 98.147 8.57254 80.0612 8.57254C61.9754 8.57254 48.3375 21.8306 47.9238 37.0816H39.6418V42.4073C39.4436 40.8956 39.3416 39.3563 39.3416 37.795C39.3416 16.9214 57.5724 0 80.0612 0C102.55 0 120.781 16.9214 120.781 37.795C120.781 39.3579 120.679 40.8987 120.48 42.4119V37.0816H112.199Z"/>
</mask>
<path fill-rule="evenodd" clip-rule="evenodd" d="M112.199 37.0816C111.785 21.8306 98.147 8.57254 80.0612 8.57254C61.9754 8.57254 48.3375 21.8306 47.9238 37.0816H39.6418V42.4073C39.4436 40.8956 39.3416 39.3563 39.3416 37.795C39.3416 16.9214 57.5724 0 80.0612 0C102.55 0 120.781 16.9214 120.781 37.795C120.781 39.3579 120.679 40.8987 120.48 42.4119V37.0816H112.199Z" fill="white"/>
<path d="M112.199 37.0816L100.773 37.3916L101.074 48.5117H112.199V37.0816ZM47.9238 37.0816V48.5117H59.0481L59.3497 37.3916L47.9238 37.0816ZM39.6418 37.0816V25.6516H28.2117V37.0816H39.6418ZM39.6418 42.4073L28.3087 43.8929L51.0718 42.4073H39.6418ZM120.48 42.4119H109.05L131.813 43.8989L120.48 42.4119ZM120.48 37.0816H131.91V25.6516H120.48V37.0816ZM123.624 36.7717C123.025 14.658 103.643 -2.85751 80.0612 -2.85751V20.0026C92.6509 20.0026 100.545 29.0031 100.773 37.3916L123.624 36.7717ZM80.0612 -2.85751C56.4793 -2.85751 37.0978 14.658 36.498 36.7717L59.3497 37.3916C59.5772 29.0031 67.4714 20.0026 80.0612 20.0026V-2.85751ZM39.6418 48.5117H47.9238V25.6516H39.6418V48.5117ZM51.0718 42.4073V37.0816H28.2117V42.4073H51.0718ZM27.9116 37.795C27.9116 39.8549 28.0462 41.8904 28.3087 43.8929L50.9749 40.9217C50.8411 39.9009 50.7717 38.8578 50.7717 37.795H27.9116ZM80.0612 -11.43C52.0769 -11.43 27.9116 9.82141 27.9116 37.795H50.7717C50.7717 24.0213 63.0678 11.43 80.0612 11.43V-11.43ZM132.211 37.795C132.211 9.82141 108.045 -11.43 80.0612 -11.43V11.43C97.0545 11.43 109.351 24.0213 109.351 37.795H132.211ZM131.813 43.8989C132.076 41.8944 132.211 39.8569 132.211 37.795H109.351C109.351 38.8589 109.281 39.9029 109.147 40.9248L131.813 43.8989ZM109.05 37.0816V42.4119H131.91V37.0816H109.05ZM112.199 48.5117H120.48V25.6516H112.199V48.5117Z" fill="white" mask="url(#path-7-inside-2_279_2)"/>
<path fill-rule="evenodd" clip-rule="evenodd" d="M47.9237 98.4095C48.3371 113.661 61.9751 126.919 80.0611 126.919C98.147 126.919 111.785 113.661 112.198 98.4095H120.48V93.0824C120.679 94.5947 120.781 96.1346 120.781 97.6966C120.781 118.57 102.55 135.492 80.0611 135.492C57.5723 135.492 39.3415 118.57 39.3415 97.6966C39.3415 96.1343 39.4436 94.5941 39.642 93.0815V98.4095H47.9237Z" fill="white"/>
<path d="M43.6276 35.6556L43.6276 101.262" stroke="white" stroke-width="8.57254"/>
<line x1="116.494" y1="35.6556" x2="116.494" y2="101.262" stroke="white" stroke-width="8.57254"/>
<line x1="61.011" y1="71.2709" x2="100.404" y2="71.2709" stroke="white" stroke-width="7.14378" stroke-linecap="round"/>
<line x1="70.0596" y1="59.6573" x2="91.3549" y2="59.6573" stroke="white" stroke-width="7.14378" stroke-linecap="round"/>
<line x1="77.8158" y1="49.3345" x2="83.5988" y2="49.3345" stroke="white" stroke-width="7.14378" stroke-linecap="round"/>
<line x1="77.8158" y1="91.9174" x2="83.5988" y2="91.9174" stroke="white" stroke-width="7.14378" stroke-linecap="round"/>
<line x1="70.0596" y1="82.8845" x2="91.3549" y2="82.8845" stroke="white" stroke-width="7.14378" stroke-linecap="round"/>
</svg>
