<svg width="32" height="32" viewBox="0 0 32 32" fill="none" xmlns="http://www.w3.org/2000/svg">
<g clip-path="url(#clip0_279_3)">
<path d="M7.0059 16.1328L28.9894 16.1327M6.79611 16.6097L2.47281 26.4353C2.09187 27.301 1.90145 27.7338 1.98509 27.9994C2.05764 28.2296 2.2379 28.4101 2.468 28.4827C2.73347 28.5667 3.16655 28.3769 4.03259 27.997L28.6101 17.2174C29.392 16.8745 29.7828 16.7031 29.9024 16.4633C30.0063 16.2552 30.0064 16.0103 29.9024 15.8021C29.7828 15.5625 29.3919 15.391 28.6101 15.0481L4.03256 4.2685C3.16651 3.88866 2.73349 3.69875 2.468 3.7827C2.23785 3.85547 2.05763 4.0359 1.98513 4.26614C1.90148 4.53172 2.09188 4.96456 2.47276 5.83012L6.79612 15.6558C6.87337 15.8315 6.912 15.9193 6.92728 16.0106C6.94089 16.0914 6.94079 16.174 6.92728 16.2549C6.912 16.3462 6.87337 16.434 6.79611 16.6097Z" stroke="white" stroke-width="2.96088" stroke-linecap="round" stroke-linejoin="round"/>
</g>
<defs>
<clipPath id="clip0_279_3">
<rect width="32" height="32" fill="white"/>
</clipPath>
</defs>
</svg>
